<svg width="40" height="40" viewBox="0 0 40 40" fill="none" xmlns="http://www.w3.org/2000/svg">
<path fill-rule="evenodd" clip-rule="evenodd" d="M3.39505 18.8221C13.7309 14.319 20.623 11.3503 24.0715 9.9159C33.9177 5.82054 35.9637 5.10913 37.2972 5.08564C37.5905 5.08047 38.2463 5.15316 38.6711 5.49785C39.0298 5.7889 39.1285 6.18206 39.1757 6.45801C39.2229 6.73395 39.2817 7.36257 39.235 7.85375C38.7014 13.46 36.3926 27.0649 35.2181 33.3439C34.7211 36.0009 33.7425 36.8917 32.7951 36.9789C30.7362 37.1684 29.1727 35.6182 27.1785 34.311C24.058 32.2655 22.2952 30.9921 19.2662 28.9961C15.7657 26.6893 18.0349 25.4215 20.0298 23.3495C20.5519 22.8072 29.6236 14.5558 29.7992 13.8073C29.8211 13.7137 29.8415 13.3647 29.6342 13.1805C29.4269 12.9962 29.1209 13.0592 28.9001 13.1093C28.5872 13.1804 23.6021 16.4753 13.9451 22.994C12.5301 23.9657 11.2485 24.4391 10.1001 24.4143C8.83422 24.3869 6.3991 23.6985 4.58883 23.1101C2.36847 22.3883 0.60377 22.0067 0.757436 20.781C0.837474 20.1425 1.71668 19.4896 3.39505 18.8221Z" fill="url(#paint0_linear_1619_17962)"/>
<defs>
<linearGradient id="paint0_linear_1619_17962" x1="20.0001" y1="5.08539" x2="20.0001" y2="36.758" gradientUnits="userSpaceOnUse">
<stop stop-color="#2AABEE"/>
<stop offset="1" stop-color="#229ED9"/>
</linearGradient>
</defs>
</svg>
